<?xml version="1.0" encoding="us-ascii" standalone="no"?><svg xmlns="http://www.w3.org/2000/svg" xmlns:xlink="http://www.w3.org/1999/xlink" contentStyleType="text/css" height="607px" preserveAspectRatio="none" style="width:696px;height:607px;background:#FFFFFF;" version="1.1" viewBox="0 0 696 607" width="696px" zoomAndPan="magnify"><defs/><g><!--class s--><g id="elem_s"><rect codeLine="3" fill="#F1F1F1" height="91.1875" id="s" rx="2.5" ry="2.5" style="stroke:#181818;stroke-width:0.5;" width="127" x="308" y="7"/><text fill="#000000" font-family="sans-serif" font-size="14" lengthAdjust="spacing" textLength="55" x="344" y="24.9951">Student</text><line style="stroke:#181818;stroke-width:0.5;" x1="309" x2="434" y1="33.2969" y2="33.2969"/><text fill="#000000" font-family="sans-serif" font-size="14" lengthAdjust="spacing" textLength="38" x="314" y="50.292">id: int</text><line style="stroke:#181818;stroke-width:1.0;" x1="309" x2="434" y1="57.5938" y2="57.5938"/><text fill="#000000" font-family="sans-serif" font-size="14" lengthAdjust="spacing" textLength="87" x="314" y="74.5889">name: string</text><text fill="#000000" font-family="sans-serif" font-size="14" lengthAdjust="spacing" textLength="115" x="314" y="90.8857">password: string</text></g><!--class t--><g id="elem_t"><rect codeLine="10" fill="#F1F1F1" height="91.1875" id="t" rx="2.5" ry="2.5" style="stroke:#181818;stroke-width:0.5;" width="127" x="532" y="7"/><text fill="#000000" font-family="sans-serif" font-size="14" lengthAdjust="spacing" textLength="57" x="567" y="24.9951">Teacher</text><line style="stroke:#181818;stroke-width:0.5;" x1="533" x2="658" y1="33.2969" y2="33.2969"/><text fill="#000000" font-family="sans-serif" font-size="14" lengthAdjust="spacing" textLength="38" x="538" y="50.292">id: int</text><line style="stroke:#181818;stroke-width:1.0;" x1="533" x2="658" y1="57.5938" y2="57.5938"/><text fill="#000000" font-family="sans-serif" font-size="14" lengthAdjust="spacing" textLength="87" x="538" y="74.5889">name: string</text><text fill="#000000" font-family="sans-serif" font-size="14" lengthAdjust="spacing" textLength="115" x="538" y="90.8857">password: string</text></g><!--class sr--><g id="elem_sr"><rect codeLine="17" fill="#F1F1F1" height="107.4844" id="sr" rx="2.5" ry="2.5" style="stroke:#181818;stroke-width:0.5;" width="116" x="298.5" y="493"/><text fill="#000000" font-family="sans-serif" font-size="14" lengthAdjust="spacing" textLength="110" x="301.5" y="510.9951">SubjectResume</text><line style="stroke:#181818;stroke-width:0.5;" x1="299.5" x2="413.5" y1="519.2969" y2="519.2969"/><text fill="#000000" font-family="sans-serif" font-size="14" lengthAdjust="spacing" textLength="91" x="304.5" y="536.292">teacherId: int</text><text fill="#000000" font-family="sans-serif" font-size="14" lengthAdjust="spacing" textLength="89" x="304.5" y="552.5889">subjectId: int</text><text fill="#000000" font-family="sans-serif" font-size="14" lengthAdjust="spacing" textLength="73" x="304.5" y="568.8857">date: Date</text><line style="stroke:#181818;stroke-width:1.0;" x1="299.5" x2="413.5" y1="576.1875" y2="576.1875"/><text fill="#000000" font-family="sans-serif" font-size="14" lengthAdjust="spacing" textLength="101" x="304.5" y="593.1826">resume: string</text></g><!--class tc--><g id="elem_tc"><rect codeLine="25" fill="#F1F1F1" height="91.1875" id="tc" rx="2.5" ry="2.5" style="stroke:#181818;stroke-width:0.5;" width="170" x="286.5" y="158"/><text fill="#000000" font-family="sans-serif" font-size="14" lengthAdjust="spacing" textLength="164" x="289.5" y="175.9951">TeacherStudentSubject</text><line style="stroke:#181818;stroke-width:0.5;" x1="287.5" x2="455.5" y1="184.2969" y2="184.2969"/><text fill="#000000" font-family="sans-serif" font-size="14" lengthAdjust="spacing" textLength="91" x="292.5" y="201.292">teacherId: int</text><text fill="#000000" font-family="sans-serif" font-size="14" lengthAdjust="spacing" textLength="89" x="292.5" y="217.5889">subjectId: int</text><text fill="#000000" font-family="sans-serif" font-size="14" lengthAdjust="spacing" textLength="92" x="292.5" y="233.8857">studentId: int</text><line style="stroke:#181818;stroke-width:1.0;" x1="287.5" x2="455.5" y1="241.1875" y2="241.1875"/></g><!--class c--><g id="elem_c"><rect codeLine="32" fill="#F1F1F1" height="74.8906" id="c" rx="2.5" ry="2.5" style="stroke:#181818;stroke-width:0.5;" width="99" x="7" y="333.5"/><text fill="#000000" font-family="sans-serif" font-size="14" lengthAdjust="spacing" textLength="52" x="30.5" y="351.4951">Subject</text><line style="stroke:#181818;stroke-width:0.5;" x1="8" x2="105" y1="359.7969" y2="359.7969"/><text fill="#000000" font-family="sans-serif" font-size="14" lengthAdjust="spacing" textLength="38" x="13" y="376.792">id: int</text><line style="stroke:#181818;stroke-width:1.0;" x1="8" x2="105" y1="384.0938" y2="384.0938"/><text fill="#000000" font-family="sans-serif" font-size="14" lengthAdjust="spacing" textLength="87" x="13" y="401.0889">name: string</text></g><!--class f--><g id="elem_f"><rect codeLine="38" fill="#F1F1F1" height="123.7813" id="f" rx="2.5" ry="2.5" style="stroke:#181818;stroke-width:0.5;" width="214" x="141.5" y="309"/><text fill="#000000" font-family="sans-serif" font-size="14" lengthAdjust="spacing" textLength="68" x="214.5" y="326.9951">Feedback</text><line style="stroke:#181818;stroke-width:0.5;" x1="142.5" x2="354.5" y1="335.2969" y2="335.2969"/><text fill="#000000" font-family="sans-serif" font-size="14" lengthAdjust="spacing" textLength="38" x="147.5" y="352.292">id: int</text><text fill="#000000" font-family="sans-serif" font-size="14" lengthAdjust="spacing" textLength="202" x="147.5" y="368.5889">TeacherStudentSubjectId: int</text><text fill="#000000" font-family="sans-serif" font-size="14" lengthAdjust="spacing" textLength="73" x="147.5" y="384.8857">date: Date</text><line style="stroke:#181818;stroke-width:1.0;" x1="142.5" x2="354.5" y1="392.1875" y2="392.1875"/><text fill="#000000" font-family="sans-serif" font-size="14" lengthAdjust="spacing" textLength="66" x="147.5" y="409.1826">grade: int</text><text fill="#000000" font-family="sans-serif" font-size="14" lengthAdjust="spacing" textLength="80" x="147.5" y="425.4795">note: string</text></g><!--class q--><g id="elem_q"><rect codeLine="47" fill="#F1F1F1" height="91.1875" id="q" rx="2.5" ry="2.5" style="stroke:#181818;stroke-width:0.5;" width="214" x="390.5" y="325.5"/><text fill="#000000" font-family="sans-serif" font-size="14" lengthAdjust="spacing" textLength="71" x="462" y="343.4951">Questions</text><line style="stroke:#181818;stroke-width:0.5;" x1="391.5" x2="603.5" y1="351.7969" y2="351.7969"/><text fill="#000000" font-family="sans-serif" font-size="14" lengthAdjust="spacing" textLength="38" x="396.5" y="368.792">id: int</text><line style="stroke:#181818;stroke-width:1.0;" x1="391.5" x2="603.5" y1="376.0938" y2="376.0938"/><text fill="#000000" font-family="sans-serif" font-size="14" lengthAdjust="spacing" textLength="202" x="396.5" y="393.0889">TeacherStudentSubjectId: int</text><text fill="#000000" font-family="sans-serif" font-size="14" lengthAdjust="spacing" textLength="109" x="396.5" y="409.3857">question: string</text></g><!--link s to tc--><g id="link_s_tc"><path codeLine="54" d="M371.5,98.2 C371.5,117.06 371.5,132.97 371.5,151.83 " fill="none" id="s-to-tc" style="stroke:#181818;stroke-width:1.0;"/><polygon fill="#181818" points="371.5,157.83,375.5,148.83,371.5,152.83,367.5,148.83,371.5,157.83" style="stroke:#181818;stroke-width:1.0;"/></g><!--link t to tc--><g id="link_t_tc"><path codeLine="55" d="M531.91,95.8 C502.81,115.16 473.3065,134.788 443.7665,154.428 " fill="none" id="t-to-tc" style="stroke:#181818;stroke-width:1.0;"/><polygon fill="#181818" points="438.77,157.75,448.4793,156.098,442.9337,154.9817,444.0501,149.4361,438.77,157.75" style="stroke:#181818;stroke-width:1.0;"/></g><!--link t to sr--><g id="link_t_sr"><path codeLine="56" d="M614.77,98.29 C644.13,174.16 689.84,329.74 621.5,433 C575.71,502.19 483.8021,527.9866 420.6721,538.2566 " fill="none" id="t-to-sr" style="stroke:#181818;stroke-width:1.0;"/><polygon fill="#181818" points="414.75,539.22,424.2755,541.723,419.6851,538.4172,422.9909,533.8268,414.75,539.22" style="stroke:#181818;stroke-width:1.0;"/></g><!--link c to sr--><g id="link_c_sr"><path codeLine="57" d="M92.82,408.54 C102.36,417.14 112.94,425.87 123.5,433 C179.33,470.72 244.1853,500.5673 292.9153,520.7173 " fill="none" id="c-to-sr" style="stroke:#181818;stroke-width:1.0;"/><polygon fill="#181818" points="298.46,523.01,291.6715,515.8744,293.8394,521.0994,288.6145,523.2673,298.46,523.01" style="stroke:#181818;stroke-width:1.0;"/></g><!--reverse link tc to c--><g id="link_tc_c"><path codeLine="58" d="M280.8133,234.2262 C231.2233,252.3162 174.29,276.54 123.5,309 C112.63,315.95 101.85,324.7 92.22,333.39 " fill="none" id="tc-backto-c" style="stroke:#181818;stroke-width:1.0;"/><polygon fill="#181818" points="286.45,232.17,276.6242,231.4965,281.7528,233.8835,279.3658,239.0121,286.45,232.17" style="stroke:#181818;stroke-width:1.0;"/></g><!--link tc to q--><g id="link_tc_q"><path codeLine="59" d="M405.6,249.29 C423.6,272.93 441.9851,297.0863 459.9551,320.6863 " fill="none" id="tc-to-q" style="stroke:#181818;stroke-width:1.0;"/><polygon fill="#181818" points="463.59,325.46,461.3202,315.8763,460.561,321.482,454.9553,320.7228,463.59,325.46" style="stroke:#181818;stroke-width:1.0;"/></g><!--link tc to f--><g id="link_tc_f"><path codeLine="60" d="M338.21,249.29 C324.63,267.57 312.2688,284.1942 297.6288,303.8942 " fill="none" id="tc-to-f" style="stroke:#181818;stroke-width:1.0;"/><polygon fill="#181818" points="294.05,308.71,302.6288,303.8722,297.0324,304.6968,296.2077,299.1004,294.05,308.71" style="stroke:#181818;stroke-width:1.0;"/></g><!--SRC=[hL51Ri8m4Bpx5Ilk-G2gEA5AEPRq0sQz8ORY4Ez625NzUusT52FIffNgWprQxSxiZ1jh2D1wV2Ebo8cL2omgwKt02z0C3EyAmh5c2TP9n4KH7wUFj0GMRzqk5awQ-TnwyrNyk76-aiQ6VEIKV-Ai-ksUK3R4_P7IjdwWbYHNPWgSklEIqHBKrk7ET_2HxmSJGpw3VBA4VnBcn53U1_1eBNBZB-FAnf-9p5RZ8SxN4_EJJkQZsNbjwDRaMfcKV-c9nRQEetxt_VwpQtG3Kwx2ONeL4bTo3zWh747uZwUY0Bo2QwaRGVq9]--></g></svg>